<svg xmlns="http://www.w3.org/2000/svg" xml:space="preserve" width="1500" height="1500" data-id="lg_WJ6T16DHlMXHKqdp58" data-version="1"><path fill="#fff" stroke="transparent" d="M0 0h1500v1500H0z"/><g data-padding="20"><g transform="translate(-622.913 -635.339)scale(1.78645)"><path stroke="null" d="M709.012 742.843v18.41h-5.61v-38.05l-1.03-5.9q.88-.15 2.08-.27 1.19-.11 2.52-.2t2.69-.14q1.35-.04 2.5-.04 5.02 0 8.66.9t6 2.51q2.36 1.6 3.5 3.85 1.13 2.24 1.13 4.92 0 3.99-1.41 6.67-1.42 2.68-4.22 4.32t-7.02 2.33-9.79.69Zm-.59-21.68.59 6.26v11.27q4.48 0 7.67-.51 3.18-.5 5.22-1.63 2.03-1.14 2.98-3 .94-1.86.94-4.6 0-1.98-1.14-3.49-1.13-1.52-2.93-2.54t-3.98-1.55q-2.19-.53-4.28-.53-.5 0-1.19.01-.7.02-1.41.06-.7.05-1.37.11-.66.05-1.1.14Zm40.91 28.29v-30.09l1.18-1.77-4.13 1.18h-5.93l-.59-4.72h14.78v36.11q0 1.95.3 3.26.29 1.31.79 2.12.5.82 1.21 1.15.71.34 1.53.34 1.18 0 2.17-.17.99-.18 1.77-.45.78-.26 1.36-.56.58-.29.93-.5l2.03 3.57q-.23.21-.97.68t-1.87.94q-1.14.48-2.66.84-1.52.37-3.35.37-2.65 0-4.33-.97t-2.61-2.66q-.93-1.68-1.27-3.9-.34-2.23-.34-4.77Zm55.46 6.49.59 5.31h-5.9v-4.78l-2.78 3.31q-.5.38-1.28.73-.78.36-1.67.64-.88.28-1.79.44-.92.16-1.74.16-2.22 0-4.46-.69t-4.04-2.04q-1.8-1.34-2.94-3.33-1.13-1.99-1.13-4.59 0-2.74 1.16-4.73 1.17-1.99 3.06-3.29t4.3-1.92q2.42-.62 4.9-.62 2.8 0 4.87.31 2.06.31 3.54.87v-1.26q0-1.74-.43-3.13t-1.34-2.35q-.92-.96-2.35-1.46t-3.4-.5q-1.86 0-3.21.22-1.34.22-2.49.49-.68.15-1.3.32-.62.18-1.2.36l-2.13-3.95q1.24-.57 2.95-1.07 1.42-.41 3.23-.75 1.82-.34 4.44-.34 3.39 0 5.78.92 2.39.91 3.9 2.56 1.5 1.65 2.18 3.97t.68 5.15Zm-5.31-2.77v-7.4l-1.77-.24q-.42-.03-1.09-.09-.68-.06-1.48-.09l-1.56-.06q-.77-.03-1.33-.03-1.65 0-3.24.3-1.6.29-2.85.97t-2.04 1.79q-.78 1.1-.78 2.75 0 1.33.59 2.42.59 1.1 1.58 1.89.99.8 2.27 1.23 1.28.42 2.67.42 2.74 0 4.93-1.04 2.18-1.05 4.1-2.82Zm23.04-16.52v24.6h-5.31v-32.45l5.31-.59v5.7l1.8-3.45q.53-.36 1.25-.74.72-.39 1.75-.7 1.04-.3 2.45-.51 1.42-.21 3.34-.21 2.33 0 4.2.75 1.87.76 3.16 2.17 1.28 1.42 1.97 3.42.7 2.01.7 4.49v22.12h-5.31v-22.12q0-1.59-.52-2.75-.52-1.15-1.43-1.9-.92-.75-2.13-1.1-1.2-.36-2.56-.36-1.42 0-2.73.36-1.31.35-2.43.9-1.12.54-2.02 1.18-.9.63-1.49 1.19Zm43.65-3.13v16.64q0 1.95.22 3.26.23 1.31.65 2.12.43.82 1.07 1.15.63.34 1.46.34 1.38 0 2.74-.32 1.36-.33 2.54-.75 1.18-.43 2.09-.86t1.42-.63l2.03 3.57q-.26.23-1.28.84-1.02.6-2.57 1.25t-3.49 1.14q-1.95.48-4.07.48-2.66 0-4.27-.97-1.6-.97-2.46-2.66-.86-1.68-1.12-3.9-.27-2.23-.27-4.77v-15.93h-8.58v-4.72h8.58v-6.16l5.17-3.28v9.44h14.27l-.59 4.72Zm49.06-4.72 5.16-.59-10.94 33.63-6.08-.59-10.53-32.45 5.4-.59 7.05 21.8 1.56 6.85 1.48-6.85Zm31.77 0v20.86q0 1.53.19 2.83t.64 2.24q.44.95 1.18 1.48.73.53 1.82.53 1.45 0 2.82-.24 1.37-.23 2.46-.54 1.1-.31 1.82-.58.72-.26.9-.32l1.15 4.54q-.18.09-.95.44-.76.36-2 .73-1.24.36-2.89.67t-3.6.31q-2.89 0-4.68-.94-1.78-.94-2.78-2.61-1.01-1.67-1.35-3.94t-.34-4.9v-15.25l1.18-1.77-4.13 1.18h-5.92l-.59-4.72Zm-5.78-5.9v-5.9h5.96v5.9Zm50.44 31.39 3.22 3.16q-.92.94-2.01 1.74-1.09.79-2.42 1.37-1.33.57-2.93.88-1.61.31-3.59.31-3.92 0-6.78-1.38-2.86-1.39-4.72-3.72t-2.75-5.34q-.88-3.01-.88-6.28 0-2.1.43-4.15.42-2.05 1.24-3.91.81-1.85 2.03-3.45 1.22-1.59 2.83-2.74t3.57-1.81q1.96-.67 4.29-.67 3.19 0 5.76 1.03 2.56 1.04 4.36 2.9 1.8 1.85 2.77 4.46.98 2.61.98 5.74 0 .92-.06 2.01t-.18 2.06h-22.42q0 2.27.71 4.21.71 1.93 1.93 3.33 1.23 1.4 2.89 2.2 1.67.79 3.62.79 1.89 0 3.23-.28t2.27-.69 1.55-.88q.62-.48 1.06-.89Zm-12.98-12.21h13.19v-1.3q0-1.68-.67-3.1-.66-1.41-1.8-2.46-1.13-1.05-2.62-1.64t-3.14-.59q-1.98 0-3.47.64-1.49.63-2.55 1.62t-1.71 2.17-.95 2.24l-1.74 3.36Zm45.4-6.93 3.3 14.3 1.8 7.38.33-9.74 3.83-18.29 4.78-.59-6.43 33.04h-4.34l-3.89-10.26-1.65-11.86-1.6 11.8-3.86 10.32h-4.34l-6.34-32.45 4.78-.59 3.63 18.88.62 9.74 4.87-21.68Z" font-family="B612 Mono" font-size="58.997"/><path d="m627.986 764.137-27.092-7.553h-.026l-51.87-13.56a1.625 1.625 0 0 0-2.054 1.587v8.905l-21.788-5.681a1.638 1.638 0 0 0-2.054 1.586v9.035l-21.866-5.72a1.638 1.638 0 0 0-2.054 1.586v37.869c0 .74.494 1.378 1.209 1.586l51.844 14.13q.208.066.429.066.299 0 .598-.13l74.62-15.25a1.644 1.644 0 0 0 1.3-1.611V765.71c0-.728-.494-1.378-1.196-1.573m-76.96 40.04-13.637-3.718v-17.29l-25.922-6.76v16.99l-9.01-2.47v-34.462l48.569 12.662Zm21.645-9.048-9.685 1.924v-4.212l9.685-1.82Zm0-9.997-9.685 1.95v-4.225l9.685-1.82Zm2.236-12.714-21.801-6.15h-.026l-26.702-6.967v-7.761l48.529 12.649Zm20.15 18.499-9.685 1.924v-4.212l9.685-1.82Zm0-9.984-9.685 1.924v-4.225l9.685-1.82Zm3.757-13.455-21.827-6.15h-.026l-26.728-6.967v-7.644l48.58 12.7Zm17.459 9.36-9.685 1.924v-4.238l9.685-1.807Z" vector-effect="non-scaling-stroke"/><path d="M783.352 827.353h-2.5l-2.58-6.59h-8.31l-2.56 6.59h-2.43l8.19-20.81h2.03Zm-12.54-8.76h6.71l-2.41-6.42q-.47-1.22-.97-3-.31 1.36-.89 3Zm25.92 8.76-.31-2.08h-.13q-1.63 2.37-4.88 2.37-3.04 0-4.74-2.09-1.69-2.08-1.69-5.92 0-3.85 1.7-5.98 1.7-2.12 4.73-2.12 3.17 0 4.85 2.29h.19l-.1-1.12-.06-1.09v-6.32h2.36v22.06Zm-5.02-1.68q2.41 0 3.5-1.32 1.08-1.31 1.08-4.23v-.49q0-3.31-1.1-4.72-1.09-1.41-3.51-1.41-2.07 0-3.17 1.61-1.09 1.61-1.09 4.54 0 2.98 1.09 4.5t3.2 1.52m18.08 1.68h-2.75l-5.9-15.54h2.53l3.34 9.22q1.14 3.23 1.34 4.2h.11q.16-.75.99-3.12.83-2.36 3.72-10.3h2.52Zm19.7 0h-1.74l-.47-2.21h-.11q-1.17 1.46-2.32 1.98-1.16.52-2.89.52-2.31 0-3.62-1.19t-1.31-3.39q0-4.71 7.53-4.94l2.64-.08v-.97q0-1.83-.79-2.7t-2.52-.87q-1.94 0-4.4 1.19l-.72-1.8q1.15-.63 2.52-.98t2.74-.35q2.78 0 4.12 1.23t1.34 3.96Zm-7.06-1.65q2.2 0 3.45-1.21 1.26-1.21 1.26-3.38v-1.4l-2.36.1q-2.8.1-4.04.87-1.25.77-1.25 2.41 0 1.27.78 1.94.77.67 2.16.67m24.9 1.65h-2.35v-10.05q0-1.9-.87-2.84-.86-.93-2.7-.93-2.44 0-3.58 1.32-1.13 1.31-1.13 4.35v8.15h-2.36v-15.54h1.92l.38 2.13h.11q.73-1.15 2.03-1.78 1.31-.63 2.91-.63 2.81 0 4.23 1.35 1.41 1.36 1.41 4.33Zm11.05.29q-3.37 0-5.22-2.08-1.86-2.08-1.86-5.88 0-3.9 1.88-6.03 1.88-2.12 5.36-2.12 1.12 0 2.24.24t1.76.57l-.73 2q-.78-.32-1.7-.52-.92-.21-1.63-.21-4.74 0-4.74 6.04 0 2.87 1.16 4.4t3.42 1.53q1.95 0 3.99-.83v2.08q-1.56.81-3.93.81m14.18 0q-3.44 0-5.44-2.1-1.99-2.1-1.99-5.83 0-3.76 1.85-5.97t4.97-2.21q2.93 0 4.63 1.92t1.7 5.07v1.49h-10.71q.07 2.74 1.38 4.15 1.32 1.42 3.7 1.42 2.51 0 4.96-1.05v2.1q-1.25.54-2.36.77-1.11.24-2.69.24m-.63-14.14q-1.88 0-2.99 1.22t-1.31 3.37h8.12q0-2.22-.99-3.41-.99-1.18-2.83-1.18m21.25 13.85-.31-2.08h-.13q-1.63 2.37-4.87 2.37-3.05 0-4.75-2.09-1.69-2.08-1.69-5.92 0-3.85 1.7-5.98 1.7-2.12 4.74-2.12 3.16 0 4.85 2.29h.18l-.1-1.12-.06-1.09v-6.32h2.36v22.06Zm-5.02-1.68q2.41 0 3.5-1.32 1.08-1.31 1.08-4.23v-.49q0-3.31-1.09-4.72-1.1-1.41-3.51-1.41-2.08 0-3.17 1.61-1.1 1.61-1.1 4.54 0 2.98 1.09 4.5t3.2 1.52m23.84 1.68h-11.55v-20.73h2.41v18.55h9.14Zm14.47 0h-1.75l-.46-2.21h-.12q-1.16 1.46-2.32 1.98-1.15.52-2.88.52-2.31 0-3.62-1.19-1.32-1.19-1.32-3.39 0-4.71 7.53-4.94l2.64-.08v-.97q0-1.83-.79-2.7-.78-.87-2.51-.87-1.95 0-4.4 1.19l-.72-1.8q1.15-.63 2.51-.98 1.37-.35 2.75-.35 2.78 0 4.12 1.23t1.34 3.96Zm-7.06-1.65q2.19 0 3.45-1.21 1.25-1.21 1.25-3.38v-1.4l-2.35.1q-2.81.1-4.05.87t-1.24 2.41q0 1.27.77 1.94.78.67 2.17.67m19.14-14.14q3.07 0 4.76 2.09t1.69 5.92-1.7 5.95q-1.71 2.12-4.75 2.12-1.52 0-2.77-.56-1.26-.56-2.11-1.73h-.17l-.49 2h-1.69v-22.06h2.35v5.36q0 1.8-.11 3.23h.11q1.65-2.32 4.88-2.32m-.34 1.97q-2.41 0-3.47 1.38-1.07 1.38-1.07 4.66 0 3.27 1.1 4.69 1.09 1.41 3.5 1.41 2.17 0 3.23-1.58 1.07-1.59 1.07-4.55 0-3.03-1.07-4.52-1.06-1.49-3.29-1.49m20.93 9.58q0 2.17-1.61 3.35-1.62 1.18-4.54 1.18-3.09 0-4.82-.98v-2.18q1.12.56 2.4.89t2.48.33q1.84 0 2.83-.59 1-.59 1-1.8 0-.91-.79-1.55-.79-.65-3.07-1.52-2.17-.81-3.09-1.42-.91-.6-1.36-1.36-.45-.77-.45-1.83 0-1.9 1.55-3t4.24-1.1q2.51 0 4.91 1.02l-.84 1.91q-2.34-.96-4.24-.96-1.67 0-2.52.52-.85.53-.85 1.45 0 .62.31 1.06.32.44 1.03.84t2.73 1.15q2.76 1.01 3.73 2.03t.97 2.56" font-family="Open Sans" font-size="29.045"/><path fill="#2dbf60" d="m735.302 828.048-9.598-15.154v-14.829h1.657a1.495 1.495 0 1 0 0-2.99h-14a1.495 1.495 0 1 0 0 2.99h1.652l-.056 14.896-9.475 14.986a3.19 3.19 0 0 0-.308 3.354 3.19 3.19 0 0 0 2.856 1.776h24.651a3.19 3.19 0 0 0 2.867-1.776 3.14 3.14 0 0 0-.246-3.248m-2.43 1.921a.19.19 0 0 1-.19.118H708.03c-.034 0-.129 0-.19-.112-.056-.123 0-.196.09-.33l9.486-14.992a2.97 2.97 0 0 0 .588-1.764v-14.829h4.715v14.83c0 .632.207 1.26.52 1.662l9.616 15.188c.022.033.078.112.022.224"/><circle cx="677.289" cy="670.487" r="3.61" fill="#2dbf60" transform="matrix(.56 0 0 .56 339.848 416.584)"/><circle cx="677.289" cy="670.487" r="5.28" fill="#2dbf60" transform="matrix(.56 0 0 .56 342.945 409.892)"/><path fill="#2dbf60" d="M723.274 823.658c-3.282.213-7.18-4.267-8.288-2.873-.314.386-4.234 6.675-4.234 6.675-.728 1.092-.414 1.417.784 1.417h18.368a.526.526 0 0 0 .448-.806l-3.153-4.968a.504.504 0 0 0-.616-.212 12.3 12.3 0 0 1-3.31.767"/><rect width="6.646" height="195.761" x="-420.116" y="314.726" fill="#050505" rx="0" ry="0" transform="matrix(-.91 0 0 .91 291.96 400)" vector-effect="non-scaling-stroke"/></g><path fill="transparent" stroke="transparent" stroke-width="1.855" d="M250 584.88h1000v330.24H250z"/></g></svg>